<?xml version="1.0" encoding="UTF-8"?>
<svg xmlns="http://www.w3.org/2000/svg" xmlns:xlink="http://www.w3.org/1999/xlink" width="100pt" height="64pt" viewBox="0 0 100 64" version="1.1">
<defs>
<linearGradient id="linear0" gradientUnits="userSpaceOnUse" x1="56.9526" y1="76.4736" x2="206.7964" y2="76.4736" gradientTransform="matrix(-0.12749,0,0,0.127745,69.723153,0)">
<stop offset="0.8085" style="stop-color:rgb(63.137255%,74.901961%,72.941176%);stop-opacity:1;"/>
<stop offset="1" style="stop-color:rgb(48.235294%,67.058824%,67.45098%);stop-opacity:1;"/>
</linearGradient>
<linearGradient id="linear1" gradientUnits="userSpaceOnUse" x1="-58.9126" y1="141.5889" x2="90.939" y2="141.5889" gradientTransform="matrix(-0.12749,0,0,0.127745,69.723153,0)">
<stop offset="0.8085" style="stop-color:rgb(63.137255%,74.901961%,72.941176%);stop-opacity:1;"/>
<stop offset="1" style="stop-color:rgb(48.235294%,67.058824%,67.45098%);stop-opacity:1;"/>
</linearGradient>
<linearGradient id="linear2" gradientUnits="userSpaceOnUse" x1="-173.2427" y1="207.6196" x2="-23.395" y2="207.6196" gradientTransform="matrix(-0.12749,0,0,0.127745,69.723153,0)">
<stop offset="0.8085" style="stop-color:rgb(63.137255%,74.901961%,72.941176%);stop-opacity:1;"/>
<stop offset="1" style="stop-color:rgb(48.235294%,67.058824%,67.45098%);stop-opacity:1;"/>
</linearGradient>
</defs>
<g id="surface1">
<path style=" stroke:none;fill-rule:nonzero;fill:rgb(36.862745%,37.254902%,34.901961%);fill-opacity:1;" d="M 58.496094 3.707031 L 50.660156 4.175781 L 29.601562 15.230469 L 73.59375 40.640625 L 93.347656 29.8125 L 93.347656 23.296875 Z M 58.496094 3.707031 "/>
<path style=" stroke:none;fill-rule:nonzero;fill:rgb(19.607843%,39.607843%,52.54902%);fill-opacity:1;" d="M 62.460938 4.570312 C 62.460938 2.046875 58.1875 0 52.910156 0 C 47.636719 0 43.359375 2.046875 43.359375 4.570312 C 43.359375 7.09375 47.636719 9.140625 52.910156 9.140625 C 58.1875 9.140625 62.460938 7.09375 62.460938 4.570312 Z M 62.460938 4.570312 "/>
<path style=" stroke:none;fill-rule:nonzero;fill:url(#linear0);" d="M 62.460938 4.570312 C 62.460938 7.09375 58.183594 9.140625 52.910156 9.140625 C 47.636719 9.140625 43.359375 7.09375 43.359375 4.570312 L 43.359375 10.398438 C 43.359375 12.921875 47.636719 14.96875 52.910156 14.96875 C 58.183594 14.96875 62.460938 12.921875 62.460938 10.398438 Z M 62.460938 4.570312 "/>
<path style=" stroke:none;fill-rule:nonzero;fill:rgb(65.490196%,85.098039%,86.666667%);fill-opacity:1;" d="M 44.488281 4.4375 C 44.488281 6.472656 48.257812 8.125 52.910156 8.125 C 57.5625 8.125 61.335938 6.472656 61.335938 4.4375 C 61.335938 2.398438 57.5625 0.746094 52.910156 0.746094 C 48.257812 0.746094 44.488281 2.398438 44.488281 4.4375 Z M 44.488281 4.4375 "/>
<path style=" stroke:none;fill-rule:nonzero;fill:rgb(32.54902%,63.921569%,67.843137%);fill-opacity:1;" d="M 52.910156 8.125 C 48.53125 8.125 44.933594 6.660156 44.527344 4.789062 C 44.933594 2.917969 48.53125 1.453125 52.910156 1.453125 C 57.289062 1.453125 60.890625 2.917969 61.296875 4.789062 C 60.890625 6.660156 57.289062 8.125 52.910156 8.125 Z M 52.910156 8.125 "/>
<path style=" stroke:none;fill-rule:nonzero;fill:rgb(88.235294%,95.686275%,99.215686%);fill-opacity:1;" d="M 51.480469 4.59375 L 48.421875 7.558594 C 49.058594 7.734375 49.757812 7.875 50.496094 7.972656 L 53.109375 5.0625 Z M 51.480469 4.59375 "/>
<path style=" stroke:none;fill-rule:nonzero;fill:rgb(19.607843%,39.607843%,52.54902%);fill-opacity:1;" d="M 50.558594 4.503906 C 50.558594 5 51.464844 5.402344 52.582031 5.402344 C 53.699219 5.402344 54.605469 5 54.605469 4.503906 C 54.605469 4.007812 53.699219 3.605469 52.582031 3.605469 C 51.464844 3.605469 50.558594 4.007812 50.558594 4.503906 Z M 50.558594 4.503906 "/>
<path style=" stroke:none;fill-rule:nonzero;fill:rgb(25.882353%,67.843137%,85.882353%);fill-opacity:1;" d="M 43.921875 21.972656 L 49.992188 18.839844 L 49.992188 14.355469 L 43.921875 17.238281 Z M 43.921875 21.972656 "/>
<path style=" stroke:none;fill-rule:nonzero;fill:rgb(20.784314%,55.294118%,70.588235%);fill-opacity:1;" d="M 43.921875 17.238281 L 43.921875 21.972656 L 34.207031 16.304688 L 34.207031 11.636719 Z M 43.921875 17.238281 "/>
<path style=" stroke:none;fill-rule:nonzero;fill:rgb(16.470588%,33.333333%,44.705882%);fill-opacity:1;" d="M 34.207031 11.636719 L 43.921875 17.238281 L 49.992188 14.355469 L 49.992188 13.769531 L 40.796875 8.4375 L 39.984375 8.40625 L 34.207031 10.992188 Z M 34.207031 11.636719 "/>
<path style=" stroke:none;fill-rule:nonzero;fill:rgb(73.333333%,70.980392%,66.666667%);fill-opacity:1;" d="M 43.710938 15.859375 L 35.285156 11.050781 L 40.332031 8.800781 L 48.757812 13.667969 Z M 43.710938 15.859375 "/>
<path style=" stroke:none;fill-rule:nonzero;fill:rgb(20.784314%,55.294118%,70.588235%);fill-opacity:1;" d="M 40.304688 9.25 L 35.753906 11.316406 L 35.285156 11.050781 L 40.332031 8.800781 L 48.757812 13.667969 L 48.304688 13.863281 Z M 40.304688 9.25 "/>
<path style=" stroke:none;fill-rule:nonzero;fill:rgb(75.294118%,86.666667%,86.27451%);fill-opacity:1;" d="M 46.769531 18.226562 L 46.769531 17.09375 L 44.8125 18.125 L 44.8125 19.257812 Z M 46.769531 18.226562 "/>
<path style=" stroke:none;fill-rule:nonzero;fill:rgb(16.470588%,33.333333%,44.705882%);fill-opacity:1;" d="M 46.769531 18.226562 L 46.769531 17.09375 L 46.523438 17.226562 L 46.523438 18.125 L 44.8125 18.996094 L 44.8125 19.257812 Z M 46.769531 18.226562 "/>
<path style=" stroke:none;fill-rule:nonzero;fill:rgb(75.294118%,86.666667%,86.27451%);fill-opacity:1;" d="M 37.085938 16.207031 L 37.085938 15.074219 L 38.535156 15.933594 L 38.535156 17.066406 Z M 37.085938 16.207031 "/>
<path style=" stroke:none;fill-rule:nonzero;fill:rgb(16.470588%,33.333333%,44.705882%);fill-opacity:1;" d="M 37.085938 16.207031 L 37.085938 15.074219 L 37.335938 15.207031 L 37.332031 16.105469 L 38.535156 16.804688 L 38.535156 17.066406 Z M 37.085938 16.207031 "/>
<path style=" stroke:none;fill-rule:nonzero;fill:rgb(75.294118%,86.666667%,86.27451%);fill-opacity:1;" d="M 35.054688 15.039062 L 35.054688 13.90625 L 36.503906 14.765625 L 36.503906 15.898438 Z M 35.054688 15.039062 "/>
<path style=" stroke:none;fill-rule:nonzero;fill:rgb(16.470588%,33.333333%,44.705882%);fill-opacity:1;" d="M 35.054688 15.039062 L 35.054688 13.90625 L 35.304688 14.039062 L 35.304688 14.9375 L 36.503906 15.636719 L 36.503906 15.898438 Z M 35.054688 15.039062 "/>
<path style=" stroke:none;fill-rule:nonzero;fill:rgb(75.294118%,86.666667%,86.27451%);fill-opacity:1;" d="M 41.289062 18.632812 L 41.289062 17.5 L 42.738281 18.359375 L 42.738281 19.492188 Z M 41.289062 18.632812 "/>
<path style=" stroke:none;fill-rule:nonzero;fill:rgb(16.470588%,33.333333%,44.705882%);fill-opacity:1;" d="M 41.289062 18.632812 L 41.289062 17.5 L 41.539062 17.632812 L 41.535156 18.53125 L 42.738281 19.230469 L 42.738281 19.492188 Z M 41.289062 18.632812 "/>
<path style=" stroke:none;fill-rule:nonzero;fill:rgb(75.294118%,86.666667%,86.27451%);fill-opacity:1;" d="M 39.101562 18.972656 L 39.101562 16.222656 L 40.828125 17.238281 L 40.828125 19.992188 Z M 39.101562 18.972656 "/>
<path style=" stroke:none;fill-rule:nonzero;fill:rgb(16.470588%,33.333333%,44.705882%);fill-opacity:1;" d="M 39.101562 19.171875 L 39.101562 16.222656 L 39.347656 16.351562 L 39.347656 19.089844 L 40.828125 19.949219 L 40.828125 20.179688 Z M 39.101562 19.171875 "/>
<path style=" stroke:none;fill-rule:nonzero;fill:rgb(16.470588%,33.333333%,44.705882%);fill-opacity:1;" d="M 40.042969 16.777344 L 40.144531 16.839844 L 40.144531 19.589844 L 39.972656 19.488281 L 39.972656 16.734375 Z M 40.042969 16.777344 "/>
<path style=" stroke:none;fill-rule:nonzero;fill:rgb(75.294118%,86.666667%,86.27451%);fill-opacity:1;" d="M 49.03125 17.023438 L 49.03125 15.890625 L 47.074219 16.921875 L 47.074219 18.054688 Z M 49.03125 17.023438 "/>
<path style=" stroke:none;fill-rule:nonzero;fill:rgb(16.470588%,33.333333%,44.705882%);fill-opacity:1;" d="M 49.03125 17.023438 L 49.03125 15.890625 L 48.785156 16.019531 L 48.785156 16.921875 L 47.074219 17.792969 L 47.074219 18.054688 Z M 49.03125 17.023438 "/>
<path style=" stroke:none;fill-rule:nonzero;fill:rgb(19.607843%,39.607843%,52.54902%);fill-opacity:1;" d="M 58.128906 12.890625 C 58.128906 15.414062 62.40625 17.460938 67.679688 17.460938 C 72.957031 17.460938 77.234375 15.414062 77.234375 12.890625 C 77.234375 10.363281 72.957031 8.316406 67.679688 8.316406 C 62.40625 8.316406 58.128906 10.363281 58.128906 12.890625 Z M 58.128906 12.890625 "/>
<path style=" stroke:none;fill-rule:nonzero;fill:url(#linear1);" d="M 77.234375 12.890625 C 77.234375 15.414062 72.957031 17.460938 67.679688 17.460938 C 62.40625 17.460938 58.128906 15.414062 58.128906 12.890625 L 58.128906 18.714844 C 58.128906 21.238281 62.40625 23.285156 67.679688 23.285156 C 72.957031 23.285156 77.234375 21.238281 77.234375 18.714844 Z M 77.234375 12.890625 "/>
<path style=" stroke:none;fill-rule:nonzero;fill:rgb(65.490196%,85.098039%,86.666667%);fill-opacity:1;" d="M 59.257812 12.753906 C 59.257812 14.792969 63.027344 16.445312 67.679688 16.445312 C 72.332031 16.445312 76.105469 14.792969 76.105469 12.753906 C 76.105469 10.71875 72.332031 9.066406 67.679688 9.066406 C 63.027344 9.066406 59.257812 10.71875 59.257812 12.753906 Z M 59.257812 12.753906 "/>
<path style=" stroke:none;fill-rule:nonzero;fill:rgb(32.54902%,63.921569%,67.843137%);fill-opacity:1;" d="M 67.679688 16.445312 C 63.300781 16.445312 59.703125 14.980469 59.296875 13.109375 C 59.703125 11.234375 63.300781 9.773438 67.679688 9.773438 C 72.0625 9.773438 75.660156 11.234375 76.066406 13.109375 C 75.660156 14.980469 72.0625 16.445312 67.679688 16.445312 Z M 67.679688 16.445312 "/>
<path style=" stroke:none;fill-rule:nonzero;fill:rgb(88.235294%,95.686275%,99.215686%);fill-opacity:1;" d="M 61.960938 11.207031 C 61.871094 11.25 61.78125 11.296875 61.699219 11.34375 L 74.371094 14.992188 C 74.484375 14.929688 74.59375 14.859375 74.699219 14.792969 Z M 61.960938 11.207031 "/>
<path style=" stroke:none;fill-rule:nonzero;fill:rgb(88.235294%,95.686275%,99.215686%);fill-opacity:1;" d="M 65.636719 10.207031 L 65.460938 10.234375 L 69.324219 16.371094 C 69.476562 16.359375 69.628906 16.339844 69.777344 16.324219 L 65.753906 10.195312 Z M 65.636719 10.207031 "/>
<path style=" stroke:none;fill-rule:nonzero;fill:rgb(88.235294%,95.686275%,99.215686%);fill-opacity:1;" d="M 74.527344 11.605469 L 59.550781 13.714844 C 59.597656 13.789062 59.648438 13.863281 59.707031 13.9375 L 74.757812 11.796875 L 74.613281 11.667969 Z M 74.527344 11.605469 "/>
<path style=" stroke:none;fill-rule:nonzero;fill:rgb(88.235294%,95.686275%,99.215686%);fill-opacity:1;" d="M 67.324219 12.625 L 67.609375 12.703125 L 70.007812 10.242188 C 69.917969 10.226562 69.832031 10.214844 69.742188 10.203125 Z M 67.324219 12.625 "/>
<path style=" stroke:none;fill-rule:nonzero;fill:rgb(88.235294%,95.686275%,99.215686%);fill-opacity:1;" d="M 63.910156 16.046875 C 64.0625 16.082031 64.21875 16.117188 64.378906 16.144531 L 67.378906 12.980469 L 67.0625 12.886719 Z M 63.910156 16.046875 "/>
<path style=" stroke:none;fill-rule:nonzero;fill:rgb(19.607843%,39.607843%,52.54902%);fill-opacity:1;" d="M 65.328125 12.824219 C 65.328125 13.320312 66.234375 13.722656 67.351562 13.722656 C 68.472656 13.722656 69.375 13.320312 69.375 12.824219 C 69.375 12.328125 68.472656 11.925781 67.351562 11.925781 C 66.234375 11.925781 65.328125 12.328125 65.328125 12.824219 Z M 65.328125 12.824219 "/>
<path style=" stroke:none;fill-rule:nonzero;fill:rgb(19.607843%,39.607843%,52.54902%);fill-opacity:1;" d="M 72.707031 21.324219 C 72.707031 23.847656 76.980469 25.894531 82.257812 25.894531 C 87.53125 25.894531 91.808594 23.847656 91.808594 21.324219 C 91.808594 18.800781 87.53125 16.753906 82.257812 16.753906 C 76.980469 16.753906 72.707031 18.800781 72.707031 21.324219 Z M 72.707031 21.324219 "/>
<path style=" stroke:none;fill-rule:nonzero;fill:url(#linear2);" d="M 91.808594 21.324219 C 91.808594 23.847656 87.53125 25.894531 82.257812 25.894531 C 76.980469 25.894531 72.707031 23.847656 72.707031 21.324219 L 72.707031 27.148438 C 72.707031 29.675781 76.980469 31.722656 82.257812 31.722656 C 87.53125 31.722656 91.808594 29.675781 91.808594 27.148438 Z M 91.808594 21.324219 "/>
<path style=" stroke:none;fill-rule:nonzero;fill:rgb(65.490196%,85.098039%,86.666667%);fill-opacity:1;" d="M 73.832031 21.191406 C 73.832031 23.226562 77.605469 24.878906 82.257812 24.878906 C 86.910156 24.878906 90.683594 23.226562 90.683594 21.191406 C 90.683594 19.152344 86.910156 17.5 82.257812 17.5 C 77.605469 17.5 73.832031 19.152344 73.832031 21.191406 Z M 73.832031 21.191406 "/>
<path style=" stroke:none;fill-rule:nonzero;fill:rgb(32.54902%,63.921569%,67.843137%);fill-opacity:1;" d="M 82.257812 24.878906 C 77.878906 24.878906 74.277344 23.414062 73.875 21.542969 C 74.277344 19.671875 77.878906 18.207031 82.257812 18.207031 C 86.636719 18.207031 90.238281 19.671875 90.640625 21.542969 C 90.238281 23.414062 86.636719 24.878906 82.257812 24.878906 Z M 82.257812 24.878906 "/>
<path style=" stroke:none;fill-rule:nonzero;fill:rgb(88.235294%,95.686275%,99.215686%);fill-opacity:1;" d="M 85.183594 18.777344 C 84.707031 18.683594 84.210938 18.609375 83.699219 18.5625 L 81.613281 20.589844 L 81.578125 20.621094 L 76.988281 19.433594 C 76.613281 19.589844 76.277344 19.765625 75.972656 19.953125 L 80.828125 21.347656 L 77.765625 24.3125 C 78.40625 24.488281 79.101562 24.628906 79.84375 24.722656 L 82.453125 21.816406 L 88.644531 23.59375 C 89.132812 23.34375 89.546875 23.070312 89.871094 22.769531 L 83.160156 21.03125 Z M 85.183594 18.777344 "/>
<path style=" stroke:none;fill-rule:nonzero;fill:rgb(19.607843%,39.607843%,52.54902%);fill-opacity:1;" d="M 79.902344 21.257812 C 79.902344 21.753906 80.8125 22.15625 81.929688 22.15625 C 83.046875 22.15625 83.953125 21.753906 83.953125 21.257812 C 83.953125 20.761719 83.046875 20.359375 81.929688 20.359375 C 80.8125 20.359375 79.902344 20.761719 79.902344 21.257812 Z M 79.902344 21.257812 "/>
<path style=" stroke:none;fill-rule:nonzero;fill:rgb(52.54902%,51.764706%,50.588235%);fill-opacity:1;" d="M 61.183594 27.871094 L 47.023438 19.519531 L 47.023438 23.535156 L 54.152344 27.671875 L 54.152344 27.660156 L 61.183594 31.742188 Z M 61.183594 27.871094 "/>
<path style=" stroke:none;fill-rule:nonzero;fill:rgb(19.607843%,39.607843%,52.54902%);fill-opacity:1;" d="M 56.210938 17.214844 L 59.503906 20.347656 L 54.0625 23.351562 L 50.492188 20.261719 Z M 56.210938 17.214844 "/>
<path style=" stroke:none;fill-rule:nonzero;fill:rgb(16.470588%,33.333333%,44.705882%);fill-opacity:1;" d="M 50.492188 20.261719 L 56.210938 17.214844 L 52.472656 16.28125 L 47.03125 19.28125 Z M 50.492188 20.261719 "/>
<path style=" stroke:none;fill-rule:nonzero;fill:rgb(75.294118%,86.666667%,86.27451%);fill-opacity:1;" d="M 50.730469 23.613281 L 50.730469 22.398438 L 52.28125 23.316406 L 52.28125 24.53125 Z M 50.730469 23.613281 "/>
<path style=" stroke:none;fill-rule:nonzero;fill:rgb(16.470588%,33.333333%,44.705882%);fill-opacity:1;" d="M 50.730469 23.613281 L 50.730469 22.398438 L 50.996094 22.539062 L 50.992188 23.503906 L 52.28125 24.25 L 52.28125 24.53125 Z M 50.730469 23.613281 "/>
<path style=" stroke:none;fill-rule:nonzero;fill:rgb(75.294118%,86.666667%,86.27451%);fill-opacity:1;" d="M 48.902344 22.554688 L 48.902344 21.339844 L 50.457031 22.261719 L 50.457031 23.472656 Z M 48.902344 22.554688 "/>
<path style=" stroke:none;fill-rule:nonzero;fill:rgb(16.470588%,33.333333%,44.705882%);fill-opacity:1;" d="M 48.902344 22.554688 L 48.902344 21.339844 L 49.167969 21.480469 L 49.167969 22.445312 L 50.457031 23.195312 L 50.457031 23.472656 Z M 48.902344 22.554688 "/>
<path style=" stroke:none;fill-rule:nonzero;fill:rgb(75.294118%,86.666667%,86.27451%);fill-opacity:1;" d="M 54.394531 25.789062 L 54.394531 24.574219 L 55.949219 25.492188 L 55.949219 26.707031 Z M 54.394531 25.789062 "/>
<path style=" stroke:none;fill-rule:nonzero;fill:rgb(16.470588%,33.333333%,44.705882%);fill-opacity:1;" d="M 54.394531 25.789062 L 54.394531 24.574219 L 54.660156 24.714844 L 54.660156 25.679688 L 55.949219 26.429688 L 55.949219 26.707031 Z M 54.394531 25.789062 "/>
<path style=" stroke:none;fill-rule:nonzero;fill:rgb(75.294118%,86.666667%,86.27451%);fill-opacity:1;" d="M 52.566406 24.730469 L 52.566406 23.515625 L 54.121094 24.4375 L 54.121094 25.648438 Z M 52.566406 24.730469 "/>
<path style=" stroke:none;fill-rule:nonzero;fill:rgb(16.470588%,33.333333%,44.705882%);fill-opacity:1;" d="M 52.566406 24.730469 L 52.566406 23.515625 L 52.832031 23.65625 L 52.832031 24.621094 L 54.121094 25.371094 L 54.121094 25.648438 Z M 52.566406 24.730469 "/>
<path style=" stroke:none;fill-rule:nonzero;fill:rgb(73.333333%,70.980392%,66.666667%);fill-opacity:1;" d="M 61.183594 31.742188 L 66.957031 28.558594 L 66.957031 24.976562 L 61.183594 27.871094 Z M 61.183594 31.742188 "/>
<path style=" stroke:none;fill-rule:nonzero;fill:rgb(19.607843%,39.607843%,52.54902%);fill-opacity:1;" d="M 63.246094 21.285156 L 66.957031 24.742188 L 61.183594 27.636719 L 57.523438 24.328125 Z M 63.246094 21.285156 "/>
<path style=" stroke:none;fill-rule:nonzero;fill:rgb(82.745098%,82.745098%,82.745098%);fill-opacity:1;" d="M 61.183594 27.636719 L 57.523438 24.328125 L 54.0625 23.351562 L 50.492188 20.261719 L 47.03125 19.28125 L 47.03125 19.519531 L 61.183594 27.871094 L 66.957031 24.976562 L 66.957031 24.742188 Z M 61.183594 27.636719 "/>
<path style=" stroke:none;fill-rule:nonzero;fill:rgb(16.470588%,33.333333%,44.705882%);fill-opacity:1;" d="M 57.523438 24.328125 L 63.246094 21.285156 L 59.503906 20.347656 L 54.0625 23.351562 Z M 57.523438 24.328125 "/>
<path style=" stroke:none;fill-rule:nonzero;fill:rgb(75.294118%,86.666667%,86.27451%);fill-opacity:1;" d="M 58.050781 27.972656 L 58.050781 26.757812 L 59.605469 27.679688 L 59.605469 28.890625 Z M 58.050781 27.972656 "/>
<path style=" stroke:none;fill-rule:nonzero;fill:rgb(16.470588%,33.333333%,44.705882%);fill-opacity:1;" d="M 58.050781 27.972656 L 58.050781 26.757812 L 58.316406 26.898438 L 58.316406 27.863281 L 59.605469 28.609375 L 59.605469 28.890625 Z M 58.050781 27.972656 "/>
<path style=" stroke:none;fill-rule:nonzero;fill:rgb(75.294118%,86.666667%,86.27451%);fill-opacity:1;" d="M 56.226562 26.914062 L 56.226562 25.699219 L 57.777344 26.621094 L 57.777344 27.832031 Z M 56.226562 26.914062 "/>
<path style=" stroke:none;fill-rule:nonzero;fill:rgb(16.470588%,33.333333%,44.705882%);fill-opacity:1;" d="M 56.226562 26.914062 L 56.226562 25.699219 L 56.492188 25.839844 L 56.488281 26.804688 L 57.777344 27.554688 L 57.777344 27.832031 Z M 56.226562 26.914062 "/>
<path style=" stroke:none;fill-rule:nonzero;fill:rgb(25.490196%,25.882353%,25.490196%);fill-opacity:1;" d="M 49.125 19.277344 C 49.125 19.277344 49.074219 19.320312 48.960938 19.367188 C 48.851562 19.417969 48.792969 19.382812 48.792969 19.382812 C 48.792969 19.382812 48.757812 19.140625 48.59375 19.207031 C 48.425781 19.273438 48.453125 19.53125 48.453125 19.53125 L 48.453125 24.59375 C 48.453125 24.59375 48.453125 24.734375 48.269531 24.753906 C 48.089844 24.773438 47.992188 24.683594 47.992188 24.683594 L 47.992188 19.578125 C 47.992188 19.578125 48.03125 19.113281 48.15625 18.980469 C 48.304688 18.820312 48.492188 18.675781 48.6875 18.675781 C 49.054688 18.675781 49.125 19.277344 49.125 19.277344 Z M 49.125 19.277344 "/>
<path style=" stroke:none;fill-rule:nonzero;fill:rgb(25.882353%,67.843137%,85.882353%);fill-opacity:1;" d="M 72.410156 38.308594 L 78.917969 34.953125 L 78.917969 30.148438 L 72.410156 33.238281 Z M 72.410156 38.308594 "/>
<path style=" stroke:none;fill-rule:nonzero;fill:rgb(20.784314%,55.294118%,70.588235%);fill-opacity:1;" d="M 72.410156 33.238281 L 72.410156 38.308594 L 64.378906 33.636719 L 64.378906 28.636719 Z M 72.410156 33.238281 "/>
<path style=" stroke:none;fill-rule:nonzero;fill:rgb(16.470588%,33.333333%,44.705882%);fill-opacity:1;" d="M 64.378906 28.636719 L 72.410156 33.238281 L 78.917969 30.148438 L 78.917969 29.519531 L 71.441406 25.207031 L 70.570312 25.175781 L 64.378906 27.945312 Z M 64.378906 28.636719 "/>
<path style=" stroke:none;fill-rule:nonzero;fill:rgb(73.333333%,70.980392%,66.666667%);fill-opacity:1;" d="M 72.1875 31.761719 L 65.539062 28.007812 L 70.945312 25.59375 L 77.59375 29.410156 Z M 72.1875 31.761719 "/>
<path style=" stroke:none;fill-rule:nonzero;fill:rgb(20.784314%,55.294118%,70.588235%);fill-opacity:1;" d="M 70.914062 26.078125 L 66.039062 28.292969 L 65.539062 28.007812 L 70.945312 25.59375 L 77.59375 29.410156 L 77.109375 29.621094 Z M 70.914062 26.078125 "/>
<path style=" stroke:none;fill-rule:nonzero;fill:rgb(75.294118%,86.666667%,86.27451%);fill-opacity:1;" d="M 75.464844 34.296875 L 75.464844 33.082031 L 73.367188 34.1875 L 73.367188 35.402344 Z M 75.464844 34.296875 "/>
<path style=" stroke:none;fill-rule:nonzero;fill:rgb(16.470588%,33.333333%,44.705882%);fill-opacity:1;" d="M 75.464844 34.296875 L 75.464844 33.082031 L 75.199219 33.222656 L 75.199219 34.1875 L 73.367188 35.121094 L 73.367188 35.402344 Z M 75.464844 34.296875 "/>
<path style=" stroke:none;fill-rule:nonzero;fill:rgb(75.294118%,86.666667%,86.27451%);fill-opacity:1;" d="M 65.085938 32.132812 L 65.085938 30.917969 L 66.640625 31.835938 L 66.640625 33.050781 Z M 65.085938 32.132812 "/>
<path style=" stroke:none;fill-rule:nonzero;fill:rgb(16.470588%,33.333333%,44.705882%);fill-opacity:1;" d="M 65.085938 32.132812 L 65.085938 30.917969 L 65.351562 31.058594 L 65.351562 32.023438 L 66.640625 32.773438 L 66.640625 33.050781 Z M 65.085938 32.132812 "/>
<path style=" stroke:none;fill-rule:nonzero;fill:rgb(75.294118%,86.666667%,86.27451%);fill-opacity:1;" d="M 69.59375 34.730469 L 69.59375 33.515625 L 71.144531 34.4375 L 71.144531 35.652344 Z M 69.59375 34.730469 "/>
<path style=" stroke:none;fill-rule:nonzero;fill:rgb(16.470588%,33.333333%,44.705882%);fill-opacity:1;" d="M 69.59375 34.730469 L 69.59375 33.515625 L 69.859375 33.65625 L 69.855469 34.621094 L 71.144531 35.371094 L 71.144531 35.652344 Z M 69.59375 34.730469 "/>
<path style=" stroke:none;fill-rule:nonzero;fill:rgb(75.294118%,86.666667%,86.27451%);fill-opacity:1;" d="M 67.246094 35.09375 L 67.246094 32.148438 L 69.09375 33.238281 L 69.09375 36.1875 Z M 67.246094 35.09375 "/>
<path style=" stroke:none;fill-rule:nonzero;fill:rgb(16.470588%,33.333333%,44.705882%);fill-opacity:1;" d="M 67.246094 35.308594 L 67.246094 32.148438 L 67.511719 32.289062 L 67.511719 35.222656 L 69.09375 36.140625 L 69.09375 36.386719 Z M 67.246094 35.308594 "/>
<path style=" stroke:none;fill-rule:nonzero;fill:rgb(16.470588%,33.333333%,44.705882%);fill-opacity:1;" d="M 68.257812 32.742188 L 68.363281 32.808594 L 68.363281 35.753906 L 68.179688 35.644531 L 68.179688 32.699219 Z M 68.257812 32.742188 "/>
<path style=" stroke:none;fill-rule:nonzero;fill:rgb(75.294118%,86.666667%,86.27451%);fill-opacity:1;" d="M 77.886719 33.003906 L 77.886719 31.789062 L 75.789062 32.894531 L 75.789062 34.109375 Z M 77.886719 33.003906 "/>
<path style=" stroke:none;fill-rule:nonzero;fill:rgb(16.470588%,33.333333%,44.705882%);fill-opacity:1;" d="M 77.886719 33.003906 L 77.886719 31.789062 L 77.621094 31.929688 L 77.625 32.894531 L 75.789062 33.828125 L 75.789062 34.109375 Z M 77.886719 33.003906 "/>
</g>
</svg>
